<?xml version="1.0" standalone="no"?>
<!DOCTYPE svg PUBLIC "-//W3C//DTD SVG 20010904//EN"
 "http://www.w3.org/TR/2001/REC-SVG-20010904/DTD/svg10.dtd">
<svg version="1.0" xmlns="http://www.w3.org/2000/svg"
 width="240.000000pt" height="240.000000pt" viewBox="0 0 240.000000 240.000000"
 preserveAspectRatio="xMidYMid meet">
<metadata>
Created by potrace 1.11, written by Peter Selinger 2001-2013
</metadata>
<g transform="translate(0.000000,240.000000) scale(0.100000,-0.100000)"
fill="#000000" stroke="none">
<path d="M149 2361 c-50 -32 -88 -71 -118 -121 -21 -35 -21 -37 -21 -1040 0
-1003 0 -1005 21 -1040 30 -50 68 -89 118 -121 l45 -29 1006 0 1006 0 45 29
c50 32 88 71 118 121 21 35 21 37 21 1041 l0 1005 -29 45 c-32 50 -71 88 -121
118 -35 21 -37 21 -1041 21 l-1005 0 -45 -29z"/>
</g>
</svg>
